<svg width="56" height="56" viewBox="0 0 56 56" fill="none" xmlns="http://www.w3.org/2000/svg">
<g clip-path="url(#clip0)">
<path d="M52.2314 14.588V49.2462L3.54932 45.9V14.588C3.54932 12.0942 5.56976 10.0737 8.0636 10.0737H47.7172C50.211 10.0737 52.2314 12.0942 52.2314 14.588Z" fill="#CCCCCC"/>
<path d="M52.2313 14.5875V44.9852H5.03467V14.5875C5.03467 12.0941 7.05554 10.0732 9.54895 10.0732H47.717C50.2108 10.0732 52.2313 12.0941 52.2313 14.5875Z" fill="#E6E6E6"/>
<path d="M42.1845 33.5889C42.1845 40.2026 39.9479 43.4275 36.4291 44.9852C33.6268 46.2298 30.011 46.4152 26.0624 46.4152C22.1138 46.4152 18.4976 46.2298 15.6944 44.9852C12.1752 43.4275 9.93896 40.2026 9.93896 33.5889C9.93896 23.9579 14.6805 15.8047 21.2213 13.0618H20.7709C20.3706 13.0618 20.0074 12.8995 19.7455 12.6367C19.4828 12.374 19.3204 12.0117 19.3204 11.6105C19.3204 10.8094 19.9698 10.1604 20.7709 10.1604H21.8954C21.8805 10.1318 21.8668 10.1031 21.8506 10.0732H30.2725C30.2567 10.1031 30.243 10.1318 30.228 10.1604H31.3525C31.7537 10.1604 32.116 10.3223 32.3775 10.5855C32.6407 10.847 32.8026 11.2093 32.8026 11.6105C32.8026 12.4116 32.1536 13.0618 31.3525 13.0618H30.9035C37.4417 15.8047 42.1845 23.9579 42.1845 33.5889Z" fill="#CCCCCC"/>
<path d="M48.8033 14.5876V42.4714H6.97803V14.5876C6.97803 13.989 7.46466 13.502 8.06366 13.502H47.7172C48.3162 13.502 48.8033 13.989 48.8033 14.5876Z" fill="#8B75C8"/>
<path d="M42.1845 33.5889C42.1845 37.7465 41.301 40.5637 39.771 42.4714H12.3525C10.8221 40.5637 9.93896 37.7465 9.93896 33.5889C9.93896 24.4279 14.2289 16.6038 20.277 13.502H31.8473C37.8933 16.6038 42.1845 24.4279 42.1845 33.5889Z" fill="#83B2C6"/>
<path d="M23.0507 13.0612C16.5099 15.8036 11.7671 23.9576 11.7671 33.5891C11.7671 45.4716 18.9854 46.415 27.8905 46.415C36.7943 46.415 44.0126 45.4716 44.0126 33.5891C44.0126 23.9576 39.2698 15.8041 32.7303 13.0612L28.4985 11.3428" fill="#FF8E1D"/>
<path d="M27.6483 46.4141C18.8551 46.397 11.7671 45.3627 11.7671 33.5891C11.7671 23.9581 16.5099 15.8037 23.0507 13.062H25.0767C21.2746 15.8037 18.518 23.9581 18.518 33.5891C18.518 45.2862 22.5833 46.3834 27.6483 46.4141Z" fill="#E2720E"/>
<path d="M32.0564 10.1603L27.528 11.6659L23.7238 10.1603C22.7364 8.21372 21.2612 4.72013 22.5903 3.39225C24.4505 1.53159 27.8014 6.18089 27.8886 6.30308C27.8894 6.30521 27.8907 6.30521 27.8907 6.30521C27.8907 6.30521 31.3057 1.50639 33.1903 3.39225C34.5195 4.72013 33.0437 8.21372 32.0564 10.1603Z" fill="#FF8E1D"/>
<path d="M26.342 10.1606H23.7238C22.7364 8.21402 21.2612 4.72043 22.5903 3.39254C24.4505 1.53189 27.8014 6.18118 27.8886 6.30337C27.8083 6.25766 24.9103 4.58456 24.2335 6.27475C23.8289 7.28476 25.1717 8.957 26.342 10.1606Z" fill="#E2720E"/>
<path d="M34.6311 11.6107C34.6311 12.4117 33.9817 13.062 33.1806 13.062H22.599C22.1991 13.062 21.8355 12.8997 21.574 12.6369C21.3109 12.3741 21.1489 12.0118 21.1489 11.6107C21.1489 10.8096 21.7979 10.1602 22.599 10.1602H33.1806C33.5818 10.1602 33.9441 10.3225 34.206 10.5853C34.4687 10.8472 34.6311 11.2095 34.6311 11.6107Z" fill="#ED3618"/>
<path d="M34.6311 11.6107C34.6311 12.4117 33.9817 13.062 33.1806 13.062H26.7899C26.3887 13.062 26.0264 12.8997 25.765 12.6369C25.5018 12.3741 25.3398 12.0118 25.3398 11.6107C25.3398 10.8096 25.9888 10.1602 26.7899 10.1602H33.1806C33.5818 10.1602 33.9441 10.3225 34.206 10.5853C34.4688 10.8472 34.6311 11.2095 34.6311 11.6107Z" fill="#FF491F"/>
<path d="M31.5445 30.4838C30.8464 29.7618 29.8966 29.3375 29.0575 29.0188V23.9884C29.897 24.0824 30.4298 24.3533 30.8203 24.5515C31.066 24.6763 31.2599 24.7745 31.4334 24.7745C31.9632 24.7745 32.252 24.0892 32.252 23.7368C32.252 23.324 31.8483 22.9592 31.0839 22.6815C30.5225 22.4777 29.803 22.3345 29.0579 22.2786V21.2139C29.0579 20.7332 28.667 20.3423 28.1863 20.3423C27.7057 20.3423 27.3148 20.7332 27.3148 21.2139V22.3375C26.6115 22.4294 25.6135 22.6695 24.8282 23.292C23.9656 23.976 23.5281 24.9672 23.5281 26.2383C23.5281 27.4995 23.9536 28.4548 24.8282 29.1585C25.5259 29.7203 26.4026 30.0553 27.3148 30.3757V36.2367C25.8694 36.0923 25.1435 35.4048 24.662 34.949C24.389 34.6901 24.1916 34.5034 23.9737 34.5034C23.5409 34.5034 23.1333 35.0883 23.1333 35.5411C23.1333 36.4636 24.762 37.8923 27.3148 38.038V39.2056C27.3148 39.6859 27.7057 40.0768 28.1863 40.0768C28.667 40.0768 29.0575 39.6859 29.0575 39.2056V37.9354C30.1085 37.7444 30.9519 37.3146 31.5641 36.658C32.2828 35.8872 32.6472 34.8396 32.6472 33.5446C32.6472 32.2526 32.2862 31.2516 31.5445 30.4838ZM30.8344 33.7202C30.8344 34.4243 30.6421 34.9973 30.2632 35.4236C29.9697 35.7535 29.5642 35.991 29.0579 36.129V31.0734C29.5535 31.3131 29.9265 31.5763 30.1974 31.8771C30.6259 32.353 30.8344 32.9559 30.8344 33.7202ZM25.3405 26.0627C25.3405 25.4492 25.5515 24.96 25.9672 24.6092C26.2941 24.3328 26.7474 24.1414 27.3148 24.0392V28.3826C26.0954 27.893 25.3405 27.3312 25.3405 26.0627Z" fill="#E2720E"/>
<path d="M55.8906 45.8999V47.1013C55.8906 50.4454 53.1798 53.1571 49.8344 53.1571H5.94556C2.6015 53.1571 -0.109375 50.4454 -0.109375 47.1013V45.8999H55.8906Z" fill="#CCCCCC"/>
<path d="M55.8907 45.8999V47.1013C55.8907 50.4454 53.1798 53.1571 49.8345 53.1571H16.4029C13.0576 53.1571 10.3467 50.4454 10.3467 47.1013V45.8999H55.8907Z" fill="#E6E6E6"/>
<path d="M31.1264 49.3286H24.6545C23.0809 49.3286 21.8052 48.0529 21.8052 46.4793V45.9004H33.9761V46.4793C33.9757 48.0529 32.6999 49.3286 31.1264 49.3286Z" fill="#CCCCCC"/>
</g>
<defs>
<clipPath id="clip0">
<rect width="56" height="56" fill="white"/>
</clipPath>
</defs>
</svg>
