<svg width="41" height="41" viewBox="0 0 41 41" fill="none" xmlns="http://www.w3.org/2000/svg">
<g clip-path="url(#clip0)">
<path d="M0.0800781 6.80472V28.8634C0.0800781 30.8253 1.67038 32.4156 3.63229 32.4156H37.4719C39.4338 32.4156 41.0241 30.8253 41.0241 28.8634V6.80472C41.0241 4.86345 39.4507 3.29004 37.5094 3.29004H3.59476C1.65349 3.29004 0.0800781 4.86345 0.0800781 6.80472Z" fill="#8B75C8"/>
<path d="M28.8103 37.1558L20.552 39.0376L12.293 37.1558L13.4244 32.4161L20.2013 29.9243L27.6789 32.4161L28.0449 33.9504L28.8103 37.1558Z" fill="#2D303B"/>
<path d="M41.0246 28.4453V28.8632C41.0246 30.8251 39.4337 32.4161 37.4717 32.4161H3.63247C1.67056 32.4161 0.0805664 30.8251 0.0805664 28.8632V28.4453H41.0246Z" fill="#3C3F4D"/>
<path d="M28.8104 37.1555H16.1787L16.9441 33.9502H28.045L28.8104 37.1555Z" fill="#3C3F4D"/>
<path d="M33.6777 39.7946V40.92H7.42676V39.7946C7.42676 38.3372 8.60822 37.1558 10.0656 37.1558H31.0389C32.4962 37.1558 33.6777 38.3372 33.6777 39.7946Z" fill="#2D303B"/>
<path d="M33.6776 39.7946V40.92H11.938V39.7946C11.938 38.3372 13.1195 37.1558 14.5778 37.1558H31.0388C32.4962 37.1558 33.6776 38.3372 33.6776 39.7946Z" fill="#3C3F4D"/>
<path d="M7.51333 7.93848H24.2375L26.3683 28.445H5.38281L7.51333 7.93848Z" fill="#FF491F"/>
<path d="M15.7362 14.5688H27.3616L28.8424 28.4452H14.2554L15.7362 14.5688Z" fill="#ED3618"/>
<path d="M17.3239 14.5688H28.949L30.4301 28.4452H15.8428L17.3239 14.5688Z" fill="#FFE14D"/>
<path d="M20.3875 10.5711C20.0412 10.5711 19.7609 10.2906 19.7609 9.94428V5.80868C19.7609 3.66628 18.018 1.92333 15.8756 1.92333C13.7332 1.92333 11.9902 3.66628 11.9902 5.80868V9.94428C11.9902 10.2902 11.7096 10.5708 11.3637 10.5708C11.0174 10.5708 10.7368 10.2902 10.7368 9.94428V5.80868C10.7368 2.97498 13.0422 0.669922 15.8756 0.669922C18.709 0.669922 21.0143 2.9753 21.0143 5.80868V9.94428C21.0143 10.2906 20.7337 10.5711 20.3875 10.5711Z" fill="#3C3F4D"/>
<path d="M23.1368 23.1154C21.3053 23.1154 19.8154 21.6255 19.8154 19.794V17.0995C19.8154 16.7532 20.096 16.4727 20.4423 16.4727C20.7883 16.4727 21.0688 16.7532 21.0688 17.0995V19.794C21.0688 20.9345 21.9966 21.862 23.1368 21.862C24.277 21.862 25.2048 20.9345 25.2048 19.794V17.0995C25.2048 16.7532 25.4853 16.4727 25.8316 16.4727C26.1776 16.4727 26.4582 16.7532 26.4582 17.0995V19.794C26.4582 21.6255 24.9683 23.1154 23.1368 23.1154Z" fill="white"/>
<path d="M38.0997 6.04621C38.0997 9.42983 35.3568 12.1725 31.9735 12.1725C28.5898 12.1725 25.8472 9.42983 25.8472 6.04621C25.8472 2.66291 28.5898 -0.0800781 31.9735 -0.0800781C35.3568 -0.0800781 38.0997 2.66291 38.0997 6.04621Z" fill="#32CC77"/>
<path d="M31.3317 9.76068C31.1046 9.76068 30.8947 9.63743 30.7839 9.43817L29.1126 6.42993C28.9446 6.12744 29.0535 5.74582 29.3563 5.57784C29.6591 5.40987 30.0404 5.51872 30.2084 5.82152L31.2948 7.77655L33.6927 2.84361C33.8438 2.53237 34.2185 2.40256 34.5304 2.55396C34.8416 2.70535 34.9712 3.08041 34.8198 3.39165L31.8953 9.40783C31.7931 9.61804 31.5825 9.75379 31.3489 9.76036C31.3432 9.76036 31.3376 9.76068 31.3317 9.76068Z" fill="white"/>
<path d="M38.7316 17.1147H32.7154C32.3695 17.1147 32.0889 16.8342 32.0889 16.4882C32.0889 16.1419 32.3695 15.8613 32.7154 15.8613H38.7316C39.0779 15.8613 39.3582 16.1419 39.3582 16.4882C39.3582 16.8342 39.0776 17.1147 38.7316 17.1147Z" fill="#3C3F4D"/>
<path d="M38.7316 20.0396H33.9691C33.6229 20.0396 33.3423 19.759 33.3423 19.413C33.3423 19.0667 33.6229 18.7861 33.9691 18.7861H38.7316C39.0779 18.7861 39.3582 19.0667 39.3582 19.413C39.3582 19.759 39.0776 20.0396 38.7316 20.0396Z" fill="#3C3F4D"/>
</g>
<defs>
<clipPath id="clip0">
<rect width="41" height="41" fill="white"/>
</clipPath>
</defs>
</svg>
