<svg width="91" height="17" viewBox="0 0 91 17" fill="none" xmlns="http://www.w3.org/2000/svg">
<path d="M8.36719 11.3633H3.74414L2.86523 14H0.0615234L4.8252 1.20312H7.26855L12.0586 14H9.25488L8.36719 11.3633ZM4.45605 9.22754H7.65527L6.04688 4.4375L4.45605 9.22754ZM18.6768 13.0332C18.0498 13.7949 17.1826 14.1758 16.0752 14.1758C15.0557 14.1758 14.2764 13.8828 13.7373 13.2969C13.2041 12.7109 12.9316 11.8525 12.9199 10.7217V4.49023H15.46V10.6338C15.46 11.624 15.9111 12.1191 16.8135 12.1191C17.6748 12.1191 18.2666 11.8203 18.5889 11.2227V4.49023H21.1377V14H18.7471L18.6768 13.0332ZM22.6582 9.1748C22.6582 7.69238 22.9893 6.51172 23.6514 5.63281C24.3193 4.75391 25.2305 4.31445 26.3848 4.31445C27.3105 4.31445 28.0752 4.66016 28.6787 5.35156V0.5H31.2275V14H28.9336L28.8105 12.9893C28.1777 13.7803 27.3633 14.1758 26.3672 14.1758C25.248 14.1758 24.3486 13.7363 23.6689 12.8574C22.9951 11.9727 22.6582 10.7451 22.6582 9.1748ZM25.1982 9.35938C25.1982 10.25 25.3535 10.9326 25.6641 11.4072C25.9746 11.8818 26.4258 12.1191 27.0176 12.1191C27.8027 12.1191 28.3564 11.7881 28.6787 11.126V7.37305C28.3623 6.71094 27.8145 6.37988 27.0352 6.37988C25.8105 6.37988 25.1982 7.37305 25.1982 9.35938ZM35.877 14H33.3281V4.49023H35.877V14ZM33.1787 2.0293C33.1787 1.64844 33.3047 1.33496 33.5566 1.08887C33.8145 0.842773 34.1631 0.719727 34.6025 0.719727C35.0361 0.719727 35.3818 0.842773 35.6396 1.08887C35.8975 1.33496 36.0264 1.64844 36.0264 2.0293C36.0264 2.41602 35.8945 2.73242 35.6309 2.97852C35.373 3.22461 35.0303 3.34766 34.6025 3.34766C34.1748 3.34766 33.8291 3.22461 33.5654 2.97852C33.3076 2.73242 33.1787 2.41602 33.1787 2.0293ZM37.582 9.15723C37.582 8.21387 37.7637 7.37305 38.127 6.63477C38.4902 5.89648 39.0117 5.3252 39.6914 4.9209C40.377 4.5166 41.1709 4.31445 42.0732 4.31445C43.3564 4.31445 44.4023 4.70703 45.2109 5.49219C46.0254 6.27734 46.4795 7.34375 46.5732 8.69141L46.5908 9.3418C46.5908 10.8008 46.1836 11.9727 45.3691 12.8574C44.5547 13.7363 43.4619 14.1758 42.0908 14.1758C40.7197 14.1758 39.624 13.7363 38.8037 12.8574C37.9893 11.9785 37.582 10.7832 37.582 9.27148V9.15723ZM40.1221 9.3418C40.1221 10.2441 40.292 10.9355 40.6318 11.416C40.9717 11.8906 41.458 12.1279 42.0908 12.1279C42.7061 12.1279 43.1865 11.8936 43.5322 11.4248C43.8779 10.9502 44.0508 10.1943 44.0508 9.15723C44.0508 8.27246 43.8779 7.58691 43.5322 7.10059C43.1865 6.61426 42.7002 6.37109 42.0732 6.37109C41.4521 6.37109 40.9717 6.61426 40.6318 7.10059C40.292 7.58105 40.1221 8.32812 40.1221 9.3418ZM56.0215 8.77051H50.959V14H48.3223V1.20312H56.6543V3.33887H50.959V6.64355H56.0215V8.77051ZM63.1318 6.87207C62.7861 6.8252 62.4814 6.80176 62.2178 6.80176C61.2568 6.80176 60.627 7.12695 60.3281 7.77734V14H57.7881V4.49023H60.1875L60.2578 5.62402C60.7676 4.75098 61.4736 4.31445 62.376 4.31445C62.6572 4.31445 62.9209 4.35254 63.167 4.42871L63.1318 6.87207ZM68.5635 14.1758C67.1689 14.1758 66.0322 13.748 65.1533 12.8926C64.2803 12.0371 63.8438 10.8975 63.8438 9.47363V9.22754C63.8438 8.27246 64.0283 7.41992 64.3975 6.66992C64.7666 5.91406 65.2881 5.33398 65.9619 4.92969C66.6416 4.51953 67.415 4.31445 68.2822 4.31445C69.583 4.31445 70.6055 4.72461 71.3496 5.54492C72.0996 6.36523 72.4746 7.52832 72.4746 9.03418V10.0713H66.4189C66.501 10.6924 66.7471 11.1904 67.1572 11.5654C67.5732 11.9404 68.0977 12.1279 68.7305 12.1279C69.709 12.1279 70.4736 11.7734 71.0244 11.0645L72.2725 12.4619C71.8916 13.001 71.376 13.4229 70.7256 13.7275C70.0752 14.0264 69.3545 14.1758 68.5635 14.1758ZM68.2734 6.37109C67.7695 6.37109 67.3594 6.54102 67.043 6.88086C66.7324 7.2207 66.5332 7.70703 66.4453 8.33984H69.9785V8.1377C69.9668 7.5752 69.8145 7.1416 69.5215 6.83691C69.2285 6.52637 68.8125 6.37109 68.2734 6.37109ZM78.3018 14.1758C76.9072 14.1758 75.7705 13.748 74.8916 12.8926C74.0186 12.0371 73.582 10.8975 73.582 9.47363V9.22754C73.582 8.27246 73.7666 7.41992 74.1357 6.66992C74.5049 5.91406 75.0264 5.33398 75.7002 4.92969C76.3799 4.51953 77.1533 4.31445 78.0205 4.31445C79.3213 4.31445 80.3438 4.72461 81.0879 5.54492C81.8379 6.36523 82.2129 7.52832 82.2129 9.03418V10.0713H76.1572C76.2393 10.6924 76.4854 11.1904 76.8955 11.5654C77.3115 11.9404 77.8359 12.1279 78.4688 12.1279C79.4473 12.1279 80.2119 11.7734 80.7627 11.0645L82.0107 12.4619C81.6299 13.001 81.1143 13.4229 80.4639 13.7275C79.8135 14.0264 79.0928 14.1758 78.3018 14.1758ZM78.0117 6.37109C77.5078 6.37109 77.0977 6.54102 76.7812 6.88086C76.4707 7.2207 76.2715 7.70703 76.1836 8.33984H79.7168V8.1377C79.7051 7.5752 79.5527 7.1416 79.2598 6.83691C78.9668 6.52637 78.5508 6.37109 78.0117 6.37109ZM90.2285 16.373H88.6904V1.20312H90.2285V16.373Z" fill="white"/>
</svg>
