<svg width="42" height="42" viewBox="0 0 42 42" fill="none" xmlns="http://www.w3.org/2000/svg">
<g clip-path="url(#clip0)">
<path d="M32.6532 7.62645V38.6464C32.6532 40.453 31.1885 41.9181 29.3816 41.9181H3.35367C1.54674 41.9181 0.0820312 40.453 0.0820312 38.6464V7.62645C0.0820312 5.81952 1.54674 4.35449 3.35367 4.35449H14.3193C14.3193 5.48691 15.2363 6.40399 16.3678 6.40399C17.4999 6.40399 18.417 5.48691 18.417 4.35449H29.3816C31.1885 4.35449 32.6532 5.81952 32.6532 7.62645Z" fill="#8B75C8"/>
<path d="M20.8438 30.2607H28.1965V41.9178H20.8438V30.2607Z" fill="#1F81A3"/>
<path d="M4.53906 8.42676H28.1961V36.7125H4.53906V8.42676Z" fill="#E6E6E6"/>
<path d="M20.5122 2.76984C19.8736 1.10262 18.2596 -0.0820312 16.3681 -0.0820312C14.4762 -0.0820312 12.8622 1.10262 12.2245 2.76984H8.95929C8.22261 2.76984 7.625 3.36713 7.625 4.10413V10.9983H25.1108V4.10413C25.1108 3.36713 24.5135 2.76984 23.7765 2.76984H20.5122ZM16.3681 6.40389C15.2366 6.40389 14.3195 5.4868 14.3195 4.35439C14.3195 3.22325 15.2366 2.30585 16.3681 2.30585C17.5002 2.30585 18.4172 3.22325 18.4172 4.35439C18.4172 5.4868 17.5002 6.40389 16.3681 6.40389Z" fill="#FFE14D"/>
<path d="M20.8438 25.0557H28.1965V36.7128H20.8438V25.0557Z" fill="#CCCCCC"/>
<path d="M22.9907 25.0557H42.0636V41.9182H22.9907V25.0557Z" fill="#FF8E1D"/>
<path d="M35.8701 33.1127L32.5273 31.2269L29.1846 33.1127V25.0557H35.8701V33.1127Z" fill="#FF491F"/>
<path d="M16.3679 7.04671C14.8837 7.04671 13.6763 5.83899 13.6763 4.35442C13.6763 2.87048 14.8837 1.66309 16.3679 1.66309C17.8522 1.66309 19.0602 2.87048 19.0602 4.35442C19.0602 5.83899 17.8525 7.04671 16.3679 7.04671ZM16.3679 2.94899C15.5928 2.94899 14.9622 3.57961 14.9622 4.35442C14.9622 5.13019 15.5928 5.76112 16.3679 5.76112C17.1434 5.76112 17.7743 5.13019 17.7743 4.35442C17.7743 3.57961 17.1434 2.94899 16.3679 2.94899Z" fill="#FFBE1D"/>
<path d="M9.32088 20.2125C9.09818 20.2125 8.89053 20.0972 8.77326 19.9065L7.31592 17.5359C7.13007 17.2334 7.2246 16.8374 7.52709 16.6515C7.82958 16.4657 8.22563 16.5602 8.41149 16.8624L9.2757 18.2684L10.7225 15.5005C10.8872 15.1859 11.2752 15.0641 11.5902 15.2285C11.9049 15.3932 12.0266 15.7815 11.8619 16.0962L9.89061 19.8674C9.78327 20.0725 9.57434 20.2042 9.34331 20.2122C9.33562 20.2125 9.32825 20.2125 9.32088 20.2125Z" fill="#FF491F"/>
<path d="M22.0924 18.3269H13.864C13.5089 18.3269 13.2212 18.0388 13.2212 17.6838C13.2212 17.3288 13.5089 17.041 13.864 17.041H22.0924C22.4475 17.041 22.7352 17.3288 22.7352 17.6838C22.7352 18.0388 22.4475 18.3269 22.0924 18.3269Z" fill="#3C3F4D"/>
<path d="M9.32088 27.5446C9.09818 27.5446 8.89053 27.4289 8.77326 27.2382L7.31592 24.8676C7.13007 24.5652 7.2246 24.1691 7.52709 23.9832C7.82958 23.7974 8.22563 23.8919 8.41149 24.1944L9.2757 25.6005L10.7225 22.8322C10.8872 22.5179 11.2752 22.3961 11.5902 22.5605C11.9049 22.7249 12.0266 23.1133 11.8619 23.4279L9.89061 27.1994C9.78327 27.4045 9.57434 27.5359 9.34331 27.5439C9.33562 27.5446 9.32825 27.5446 9.32088 27.5446Z" fill="#FF491F"/>
<path d="M22.0924 25.6586H13.864C13.5089 25.6586 13.2212 25.3709 13.2212 25.0158C13.2212 24.6608 13.5089 24.373 13.864 24.373H22.0924C22.4475 24.373 22.7352 24.6608 22.7352 25.0158C22.7352 25.3709 22.4475 25.6586 22.0924 25.6586Z" fill="#3C3F4D"/>
<path d="M22.9907 41.9179L32.5272 40.0552L42.0636 41.9179H22.9907Z" fill="#E2720E"/>
</g>
<defs>
<clipPath id="clip0">
<rect width="42" height="42" fill="white"/>
</clipPath>
</defs>
</svg>
