<svg width="22" height="19" viewBox="0 0 22 19" fill="none" xmlns="http://www.w3.org/2000/svg">
<path d="M21.6733 11.321L19.1639 5.94599L20.2471 6.25672C20.485 6.32499 20.7333 6.18757 20.8014 5.94949C20.8696 5.71159 20.7322 5.46353 20.4943 5.39526L12.9623 3.23383C12.9639 3.20162 12.9647 3.1694 12.9647 3.13702C12.9649 2.24265 12.3611 1.46102 11.4957 1.23572C10.6302 1.01025 9.72181 1.398 9.28574 2.17875L1.75302 0.0174959C1.51512 -0.0507765 1.26689 0.0868186 1.19862 0.324722C1.13052 0.562625 1.26794 0.810681 1.50584 0.878953L2.99243 1.30557L0.300223 7.07196C0.120615 7.13481 0.000175293 7.30426 2.35775e-07 7.49472C-0.000524938 8.94963 0.876337 10.2612 2.22095 10.8166C3.56557 11.3722 5.11255 11.062 6.13908 10.0311C6.82303 9.36434 7.20938 8.45001 7.21113 7.49472C7.21113 7.29411 7.07757 7.118 6.88448 7.06356L4.38238 1.70452L9.03786 3.04021C9.03628 3.07242 9.03541 3.10463 9.03541 3.13719C9.03681 4.04907 9.66439 4.8405 10.5519 5.04952V13.9265H9.31497C8.3266 13.9265 7.50453 14.7197 7.50453 15.7082V15.9684C6.67283 16.1434 6.07571 16.8748 6.07046 17.7249V18.3523C6.07799 18.6053 6.28333 18.8076 6.53646 18.8113H15.4637C15.7168 18.8076 15.9222 18.6053 15.9297 18.3523V17.7249C15.9244 16.8748 15.3273 16.1434 14.4956 15.9684V15.7082C14.4956 14.7197 13.6734 13.9265 12.6852 13.9265H11.4482V5.04952C11.9853 4.9226 12.4445 4.57634 12.7144 4.09511L17.7869 5.55071L15.0891 11.3294C14.9093 11.3922 14.7888 11.5617 14.7887 11.7519C14.7883 13.2068 15.6652 14.5184 17.0098 15.0738C18.3544 15.6295 19.9012 15.3194 20.9277 14.2885C21.6117 13.6216 21.9982 12.7072 22 11.7519C21.9998 11.5513 21.8664 11.3754 21.6733 11.321ZM3.59428 2.11346L5.88735 7.02504H1.30138L3.59428 2.11346ZM3.59428 10.171C2.27434 10.1787 1.1454 9.22429 0.933581 7.92134H6.27545C6.04735 9.22324 4.91613 10.1726 3.59428 10.171ZM15.0334 17.7249V17.915H6.96675V17.7249C6.96675 17.2307 7.38689 16.8395 7.8809 16.8395H14.1192C14.6133 16.8395 15.0334 17.2307 15.0334 17.7249ZM13.5993 15.7082V15.9432H8.40082V15.7082C8.40082 15.2141 8.82096 14.8228 9.31497 14.8228H12.6852C13.1792 14.8228 13.5993 15.2141 13.5993 15.7082ZM11.0001 4.20539C10.5444 4.20574 10.1386 3.91725 9.98929 3.48678C9.83997 3.05632 9.97984 2.57859 10.3377 2.29657C10.6957 2.01455 11.193 1.99039 11.5765 2.23652C11.9601 2.48248 12.1455 2.94446 12.0385 3.38735C12.0271 3.41571 12.0187 3.44494 12.0133 3.47488C11.8675 3.91077 11.4596 4.20487 11.0001 4.20539ZM20.6762 11.2824H16.0902L18.3831 6.37085L20.6762 11.2824ZM18.3831 14.4284C17.0632 14.4361 15.9342 13.4817 15.7224 12.1787H21.0643C20.8362 13.4806 19.705 14.43 18.3831 14.4284Z" fill="#464646"/>
</svg>
