<svg width="20" height="19" viewBox="0 0 20 19" fill="none" xmlns="http://www.w3.org/2000/svg">
<path d="M10 18.2449C9.71527 18.2449 9.44077 18.1391 9.22684 17.947C8.41888 17.2226 7.63992 16.5419 6.95267 15.9414L6.94916 15.9382C4.93423 14.1776 3.19428 12.6572 1.98364 11.1594C0.630341 9.48496 0 7.89738 0 6.16304C0 4.47799 0.563507 2.92342 1.58661 1.7855C2.62192 0.634125 4.04251 0 5.58716 0C6.74164 0 7.79892 0.374248 8.72955 1.11226C9.19922 1.48479 9.62494 1.94071 10 2.47251C10.3752 1.94071 10.8008 1.48479 11.2706 1.11226C12.2012 0.374248 13.2585 0 14.413 0C15.9575 0 17.3782 0.634125 18.4135 1.7855C19.4366 2.92342 20 4.47799 20 6.16304C20 7.89738 19.3698 9.48496 18.0165 11.1592C16.8059 12.6572 15.0661 14.1775 13.0515 15.9379C12.363 16.5394 11.5828 17.2212 10.773 17.9473C10.5592 18.1391 10.2846 18.2449 10 18.2449ZM5.58716 1.20129C4.37363 1.20129 3.25882 1.69788 2.44781 2.59971C1.62476 3.51515 1.17142 4.78058 1.17142 6.16304C1.17142 7.6217 1.70013 8.92625 2.88559 10.3929C4.03137 11.8106 5.73563 13.2997 7.70889 15.0241L7.71256 15.0272C8.4024 15.63 9.18442 16.3134 9.99832 17.0431C10.8171 16.312 11.6003 15.6275 12.2916 15.0237C14.2647 13.2994 15.9688 11.8106 17.1146 10.3929C18.2999 8.92625 18.8286 7.6217 18.8286 6.16304C18.8286 4.78058 18.3752 3.51515 17.5522 2.59971C16.7413 1.69788 15.6264 1.20129 14.413 1.20129C13.524 1.20129 12.7078 1.49105 11.9872 2.06243C11.3449 2.57186 10.8975 3.21584 10.6352 3.66644C10.5003 3.89816 10.2629 4.03646 10 4.03646C9.73709 4.03646 9.49966 3.89816 9.36478 3.66644C9.10263 3.21584 8.65524 2.57186 8.01285 2.06243C7.29218 1.49105 6.47598 1.20129 5.58716 1.20129Z" fill="#464646"/>
</svg>
