<svg width="40" height="40" viewBox="0 0 40 40" fill="none" xmlns="http://www.w3.org/2000/svg">
<path d="M34.14 5.85524C26.3284 -1.95405 13.665 -1.95218 5.85573 5.85954C-1.95356 13.6713 -1.95169 26.3345 5.86003 34.1438C13.6717 41.9531 26.335 41.9513 34.1443 34.1395C37.8948 30.3879 40.0012 25.3 40 19.9952C39.9989 14.6913 37.891 9.60509 34.14 5.85524ZM30.2893 27.8593C30.2885 27.8602 30.2876 27.8611 30.2867 27.862V27.8553L29.2733 28.862C27.9628 30.1891 26.0541 30.7351 24.24 30.302C22.4122 29.8127 20.6747 29.034 19.0933 27.9953C17.6241 27.0563 16.2625 25.9587 15.0333 24.722C13.9023 23.5992 12.8862 22.3664 12 21.042C11.0306 19.6168 10.2633 18.0643 9.71995 16.4286C9.09706 14.507 9.61323 12.3985 11.0533 10.982L12.24 9.79532C12.5699 9.46391 13.106 9.46274 13.4373 9.79266C13.4382 9.79352 13.4391 9.79438 13.44 9.79532L17.1866 13.542C17.518 13.8719 17.5192 14.408 17.1892 14.7393C17.1884 14.7402 17.1875 14.741 17.1866 14.742L14.9866 16.942C14.3553 17.5663 14.276 18.5585 14.8 19.2753C15.5957 20.3674 16.4762 21.3949 17.4333 22.3487C18.5004 23.4204 19.6605 24.3953 20.9 25.262C21.6161 25.7616 22.5871 25.6773 23.2066 25.062L25.3332 22.902C25.6632 22.5706 26.1992 22.5695 26.5306 22.8994C26.5314 22.9002 26.5323 22.9011 26.5332 22.902L30.2866 26.662C30.6181 26.9919 30.6192 27.5279 30.2893 27.8593Z" fill="#97D513"/>
<path d="M34.14 5.85524C26.3284 -1.95405 13.665 -1.95218 5.85573 5.85954C-1.95356 13.6713 -1.95169 26.3345 5.86003 34.1438C13.6717 41.9531 26.335 41.9513 34.1443 34.1395C37.8948 30.3879 40.0012 25.3 40 19.9952C39.9989 14.6913 37.891 9.60509 34.14 5.85524ZM30.2893 27.8593C30.2885 27.8602 30.2876 27.8611 30.2867 27.862V27.8553L29.2733 28.862C27.9628 30.1891 26.0541 30.7351 24.24 30.302C22.4122 29.8127 20.6747 29.034 19.0933 27.9953C17.6241 27.0563 16.2625 25.9587 15.0333 24.722C13.9023 23.5992 12.8862 22.3664 12 21.042C11.0306 19.6168 10.2633 18.0643 9.71995 16.4286C9.09706 14.507 9.61323 12.3985 11.0533 10.982L12.24 9.79532C12.5699 9.46391 13.106 9.46274 13.4373 9.79266C13.4382 9.79352 13.4391 9.79438 13.44 9.79532L17.1866 13.542C17.518 13.8719 17.5192 14.408 17.1892 14.7393C17.1884 14.7402 17.1875 14.741 17.1866 14.742L14.9866 16.942C14.3553 17.5663 14.276 18.5585 14.8 19.2753C15.5957 20.3674 16.4762 21.3949 17.4333 22.3487C18.5004 23.4204 19.6605 24.3953 20.9 25.262C21.6161 25.7616 22.5871 25.6773 23.2066 25.062L25.3332 22.902C25.6632 22.5706 26.1992 22.5695 26.5306 22.8994C26.5314 22.9002 26.5323 22.9011 26.5332 22.902L30.2866 26.662C30.6181 26.9919 30.6192 27.5279 30.2893 27.8593Z" fill="url(#paint0_linear)" fill-opacity="0.1"/>
<defs>
<linearGradient id="paint0_linear" x1="20" y1="-0.000488281" x2="20" y2="39.9996" gradientUnits="userSpaceOnUse">
<stop stop-color="white"/>
<stop offset="1" stop-color="white" stop-opacity="0"/>
</linearGradient>
</defs>
</svg>
