<svg width="39" height="42" viewBox="0 0 39 42" fill="none" xmlns="http://www.w3.org/2000/svg">
<g clip-path="url(#clip0)">
<path d="M38.9761 17.3266C38.1717 12.3305 18.7648 13.1135 6.56314 18.6413L5.59347 19.0994C1.91079 20.9178 -0.253865 22.9379 0.0238576 24.6731C0.833184 29.7043 20.4159 28.8571 32.5464 23.3084L33.9929 22.6017C37.3173 20.8619 39.2391 18.9679 38.9761 17.3266Z" fill="#8D77C8"/>
<path d="M2.02733 24.673C1.74961 22.9379 3.91426 20.9177 7.59694 19.0993L8.56661 18.6413C14.6287 15.8949 23.0727 14.1589 29.8509 14.0003C22.6081 13.8209 13.1024 15.6788 6.56314 18.6413L5.59347 19.0993C1.91079 20.9178 -0.253865 22.9379 0.0238576 24.673C0.390244 26.9507 4.86831 28.1465 11.1473 27.9994C5.9367 27.8701 2.35342 26.7002 2.02733 24.673Z" fill="#8D77C8"/>
<path d="M32.6447 20.8212V21.2469C32.6447 21.3167 32.6972 21.3733 32.762 21.3733H32.9872C33.0305 21.3733 33.0656 21.4111 33.0656 21.4577V22.0181C33.0676 22.0757 33.0644 22.1378 33.0557 22.1873C33.0382 22.3078 32.9331 22.5116 32.6344 22.5116C32.3369 22.5116 32.2336 22.3078 32.2151 22.1873C32.2075 22.1378 32.2039 22.0758 32.2039 22.0181V19.983C32.2039 19.9104 32.2087 19.8322 32.223 19.7732C32.2432 19.6647 32.3321 19.4502 32.632 19.4502C32.9467 19.4502 33.0248 19.6753 33.0423 19.7732C33.0545 19.8369 33.0558 19.9446 33.0558 19.9446V20.0769C33.0558 20.14 33.1032 20.1911 33.1618 20.1911H33.9583C34.0315 20.1911 34.0909 20.1271 34.0909 20.0482V20.045C34.0909 20.045 34.0953 19.8925 34.083 19.7502C34.0056 18.9148 33.3701 18.6517 32.6404 18.6517C31.9104 18.6517 31.2879 18.9179 31.1974 19.7502C31.1895 19.827 31.1768 19.9642 31.1768 20.045V21.9177C31.1768 21.9984 31.1787 22.0616 31.1926 22.2112C31.2573 22.9883 31.8567 23.2849 32.5456 23.3084L33.9921 22.6017C34.0398 22.488 34.0715 22.3582 34.085 22.2112C34.0961 22.0616 34.0973 21.9984 34.1001 21.9177V20.8263C34.1001 20.7697 34.0575 20.7239 34.0049 20.7239H32.7352C32.6852 20.7238 32.6447 20.7674 32.6447 20.8212Z" fill="#F2F2F2"/>
<path d="M8.27628 21.6514C8.10367 20.7161 6.54329 20.44 6.42621 19.9184C6.40717 19.8291 6.41151 19.7342 6.42225 19.6851C6.4512 19.5429 6.53971 19.3847 6.79801 19.3847C7.03963 19.3847 7.1813 19.547 7.1813 19.7898V19.9676C7.1813 20.0213 7.22175 20.065 7.27172 20.065H8.07739C8.14892 20.065 8.20688 20.0026 8.20688 19.9255V19.7514C8.20688 18.7841 7.40068 18.6294 6.81865 18.6294C6.73098 18.6294 6.64528 18.6328 6.56271 18.6413L5.59304 19.0994C5.48709 19.237 5.41412 19.407 5.38235 19.6186C5.35219 19.8185 5.34739 19.9937 5.39066 20.2189C5.56837 21.1285 7.03041 21.393 7.24308 21.9681C7.28277 22.0758 7.27005 22.2126 7.25062 22.2967C7.21688 22.4472 7.12402 22.5975 6.84912 22.5975C6.5928 22.5975 6.43848 22.436 6.43848 22.1929L6.43718 21.8532C6.43703 21.8041 6.40001 21.7643 6.35438 21.7643H5.44489C5.38365 21.7643 5.33398 21.8178 5.33398 21.8838V22.1049C5.33398 23.1 6.05571 23.3995 6.82817 23.3995C7.57169 23.3995 8.18228 23.1256 8.28146 22.3804C8.33104 21.9967 8.29372 21.7454 8.27628 21.6514Z" fill="#F2F2F2"/>
<path d="M11.2069 23.1311L10.6881 19.3141C10.6831 19.2778 10.6346 19.2777 10.6296 19.314L10.0961 23.1439C10.0898 23.1896 10.0533 23.2233 10.0104 23.2233H9.05675C9.01402 23.2233 8.98173 23.1816 8.98942 23.1363L9.7129 18.9075C9.72646 18.8283 9.79059 18.7708 9.86532 18.7708H11.4559C11.5186 18.7708 11.5723 18.819 11.5836 18.8854L12.3072 23.1325C12.3152 23.1798 12.2815 23.2234 12.2369 23.2234H11.3058C11.2562 23.2233 11.2141 23.184 11.2069 23.1311Z" fill="#F2F2F2"/>
<path d="M16.6836 23.0783L16.6578 19.3116C16.6577 19.2873 16.625 19.2842 16.6209 19.308L15.9647 23.1317C15.9556 23.1847 15.9126 23.2233 15.8625 23.2233H15.0351C14.9603 23.2233 14.8961 23.1658 14.8825 23.0866L14.2385 19.33C14.234 19.3036 14.1979 19.307 14.1978 19.3339L14.1718 23.135C14.1715 23.1838 14.1346 23.2233 14.0892 23.2233H13.2519C13.1923 23.2233 13.1442 23.1705 13.1455 23.1062L13.2302 18.9016C13.2317 18.8289 13.2868 18.7707 13.3544 18.7707H14.795C14.8612 18.7707 14.9177 18.8226 14.9282 18.893L15.3886 21.9808C15.396 22.0302 15.4618 22.0302 15.4692 21.9808L15.9311 18.8834C15.9407 18.8185 15.9927 18.7708 16.0537 18.7708H17.5344C17.5836 18.7708 17.6238 18.8131 17.6249 18.8661L17.7122 23.0701C17.7139 23.1541 17.6511 23.2234 17.573 23.2234H16.8193C16.7447 23.2233 16.6842 23.1586 16.6836 23.0783Z" fill="#F2F2F2"/>
<path d="M21.6375 22.3675C21.5403 23.1046 20.9337 23.375 20.1985 23.375C19.4319 23.375 18.7197 23.0789 18.7197 22.095V21.8479C18.7197 21.7965 18.7584 21.7549 18.8061 21.7549H19.7095C19.7659 21.7549 19.8117 21.8041 19.8117 21.8649V22.1822C19.8117 22.4223 19.966 22.5816 20.2215 22.5816C20.4949 22.5816 20.5865 22.4333 20.6179 22.2855C20.637 22.2035 20.6473 22.0659 20.6104 21.9582C20.4009 21.3895 18.9536 21.128 18.7774 20.2278C18.7318 20.0051 18.7385 19.8304 18.7671 19.6343C18.8763 18.9135 19.4674 18.6545 20.1911 18.6545C20.7672 18.6545 21.561 18.8048 21.561 19.7649V19.9511C21.561 20.0188 21.51 20.0738 21.4471 20.0738H20.6522C20.5941 20.0738 20.547 20.0231 20.547 19.9605V19.8021C20.547 19.5624 20.4078 19.4017 20.1705 19.4017C19.9158 19.4017 19.8273 19.5572 19.7971 19.6996C19.7876 19.7478 19.7832 19.8414 19.8011 19.9303C19.9181 20.4447 21.4603 20.7225 21.6301 21.6462C21.6485 21.739 21.6835 21.9868 21.6375 22.3675Z" fill="#F2F2F2"/>
<path d="M25.4947 22.2568C25.4217 23.0887 24.817 23.3584 24.0596 23.3584C23.303 23.3584 22.6979 23.0887 22.6265 22.2568C22.6218 22.2124 22.6162 22.0449 22.6173 21.9629V18.9418C22.6173 18.8474 22.6884 18.7708 22.7761 18.7708H23.513C23.5924 18.7708 23.6569 18.8402 23.6569 18.9258V22.0651C23.6549 22.1219 23.6569 22.1873 23.6671 22.2343C23.687 22.3445 23.7758 22.5573 24.0595 22.5573C24.3464 22.5573 24.4324 22.3445 24.4543 22.2343C24.4634 22.1873 24.4654 22.1219 24.4634 22.0651V18.9073C24.4634 18.832 24.5202 18.7708 24.5902 18.7708H25.3614C25.4395 18.7708 25.5029 18.8391 25.5029 18.9233V21.9629C25.5074 22.0449 25.501 22.2124 25.4947 22.2568Z" fill="#F2F2F2"/>
<path d="M29.9682 23.1768H28.7296C28.6738 23.1768 28.6246 23.1375 28.6085 23.08L27.6639 19.7225C27.6527 19.6829 27.5984 19.6921 27.5991 19.7334L27.6515 23.0335C27.6527 23.1122 27.5939 23.1767 27.5209 23.1767H26.7739C26.7025 23.1767 26.6445 23.1143 26.6445 23.0373V18.9189C26.6445 18.837 26.7062 18.7707 26.7821 18.7707H28.0349C28.1152 18.7707 28.1859 18.8278 28.2083 18.9108L29.0932 22.1879C29.1003 22.2141 29.1362 22.2082 29.1358 22.181L29.0857 18.9222C29.0844 18.839 29.1468 18.7706 29.2241 18.7706H29.9946C30.0525 18.7706 30.0995 18.8212 30.0995 18.8836V23.0354C30.0992 23.1136 30.0406 23.1768 29.9682 23.1768Z" fill="#F2F2F2"/>
</g>
<defs>
<clipPath id="clip0">
<rect width="39" height="42" fill="white"/>
</clipPath>
</defs>
</svg>
