<svg width="27" height="27" viewBox="0 0 27 27" fill="none" xmlns="http://www.w3.org/2000/svg">
<path d="M9.92304 20.4194C8.36809 20.4194 7.10757 21.6749 7.10757 23.2235C7.10781 24.772 8.36833 26.027 9.92327 26.027C11.4782 26.027 12.7387 24.7717 12.7387 23.2232C12.7368 21.6754 11.4773 20.4211 9.92304 20.4194ZM9.92304 24.8095C9.04337 24.8095 8.33013 24.0993 8.33013 23.223C8.33037 22.347 9.04337 21.6369 9.92327 21.6369C10.8029 21.6369 11.5162 22.3472 11.5162 23.2232C11.515 24.099 10.8025 24.8086 9.92304 24.8095Z" fill="#251C41"/>
<path d="M21.0041 20.4194C19.4492 20.4194 18.1887 21.6747 18.1887 23.2232C18.1887 24.7717 19.4492 26.027 21.0041 26.027C22.5591 26.027 23.8196 24.7717 23.8196 23.2232C23.8177 21.6754 22.5584 20.4213 21.0041 20.4194ZM21.0041 24.8095C20.1242 24.8095 19.4112 24.0993 19.4112 23.2232C19.4112 22.347 20.1245 21.6369 21.0041 21.6369C21.8838 21.6369 22.5971 22.3472 22.5971 23.2232C22.5961 24.099 21.8833 24.8086 21.0041 24.8095Z" fill="#251C41"/>
<path d="M25.5775 5.43172H6.40985L5.99413 2.99387C5.74795 1.52859 4.47286 0.456388 2.9812 0.459479H1.23237C0.894736 0.459479 0.621094 0.73199 0.621094 1.06823C0.621094 1.40447 0.894736 1.67698 1.23237 1.67698H2.98096C3.87615 1.67507 4.6412 2.31854 4.78901 3.19766L7.00227 16.183C7.24869 17.6486 8.52401 18.721 10.0159 18.7174H23.0466C23.384 18.7174 23.6579 18.4449 23.6579 18.1087C23.6579 17.7724 23.384 17.4999 23.0466 17.4999H10.0157C9.12073 17.5021 8.35567 16.8586 8.20787 15.9795L7.98533 14.6738H20.7625C22.3573 14.6773 23.7706 13.6508 24.2546 12.1375L26.1594 6.22642C26.2191 6.04118 26.1864 5.83882 26.0713 5.68164C25.9562 5.52446 25.7728 5.43172 25.5775 5.43172ZM23.0906 11.7656C22.7678 12.7745 21.8255 13.4586 20.7622 13.4563H7.77783L6.61735 6.64922H24.7391L23.0906 11.7656Z" fill="#251C41"/>
</svg>
