<svg width="24" height="22" viewBox="0 0 24 22" fill="none" xmlns="http://www.w3.org/2000/svg">
<path d="M12.0005 21.7027C11.6696 21.7027 11.3506 21.5815 11.102 21.3612C10.163 20.5306 9.25774 19.7501 8.45903 19.0616L8.45496 19.058C6.11329 17.0393 4.09117 15.296 2.68422 13.5787C1.11146 11.6589 0.378906 9.83866 0.378906 7.85013C0.378906 5.91811 1.03379 4.1357 2.2228 2.831C3.426 1.51088 5.07696 0.783813 6.87209 0.783813C8.21378 0.783813 9.44252 1.21291 10.5241 2.05909C11.0699 2.48622 11.5646 3.00896 12.0005 3.6187C12.4366 3.00896 12.9312 2.48622 13.4772 2.05909C14.5587 1.21291 15.7875 0.783813 17.1291 0.783813C18.9241 0.783813 20.5752 1.51088 21.7784 2.831C22.9674 4.1357 23.6222 5.91811 23.6222 7.85013C23.6222 9.83866 22.8898 11.6589 21.317 13.5786C19.9101 15.296 17.8881 17.0392 15.5468 19.0576C14.7467 19.7472 13.84 20.529 12.8989 21.3615C12.6504 21.5815 12.3313 21.7027 12.0005 21.7027ZM6.87209 2.16116C5.46177 2.16116 4.16618 2.73054 3.22366 3.76454C2.26714 4.81415 1.74028 6.26505 1.74028 7.85013C1.74028 9.52257 2.35474 11.0183 3.73243 12.6999C5.06401 14.3254 7.04463 16.0328 9.33789 18.0098L9.34215 18.0134C10.1439 18.7046 11.0527 19.4882 11.9986 20.3248C12.9501 19.4866 13.8604 18.7017 14.6637 18.0095C16.9568 16.0324 18.9372 14.3254 20.2688 12.6999C21.6463 11.0183 22.2608 9.52257 22.2608 7.85013C22.2608 6.26505 21.7339 4.81415 20.7774 3.76454C19.8351 2.73054 18.5393 2.16116 17.1291 2.16116C16.096 2.16116 15.1475 2.49339 14.3099 3.14852C13.5635 3.73261 13.0436 4.47098 12.7388 4.98762C12.582 5.25329 12.3061 5.41187 12.0005 5.41187C11.695 5.41187 11.4191 5.25329 11.2623 4.98762C10.9576 4.47098 10.4377 3.73261 9.69114 3.14852C8.8536 2.49339 7.90505 2.16116 6.87209 2.16116Z" fill="#251C41"/>
</svg>
