<svg width="6" height="11" viewBox="0 0 6 11" fill="none" xmlns="http://www.w3.org/2000/svg">
<path d="M5.80612 5.88119L1.45948 10.2277C1.35895 10.3284 1.22475 10.3838 1.08165 10.3838C0.938556 10.3838 0.804354 10.3284 0.703822 10.2277L0.383722 9.90773C0.175431 9.6992 0.175431 9.36028 0.383722 9.15207L4.0337 5.50209L0.379672 1.84807C0.27914 1.74746 0.223633 1.61333 0.223633 1.47032C0.223633 1.32714 0.27914 1.19302 0.379672 1.09233L0.699772 0.772387C0.800384 0.671775 0.934506 0.616347 1.0776 0.616347C1.2207 0.616347 1.3549 0.671775 1.45543 0.772387L5.80612 5.12291C5.90689 5.22384 5.96224 5.3586 5.96192 5.50185C5.96224 5.64567 5.90689 5.78034 5.80612 5.88119Z" fill="black"/>
</svg>
