<svg width="21" height="20" viewBox="0 0 21 20" fill="none" xmlns="http://www.w3.org/2000/svg">
<path d="M4.30664 9.85449C3.33953 9.85449 2.46094 10.6718 2.46094 11.7022V17.8613C2.46094 18.8557 3.33342 19.709 4.30664 19.709C5.3244 19.709 6.15234 18.8801 6.15234 17.8613V11.7022C6.15234 10.6833 5.3244 9.85449 4.30664 9.85449Z" fill="white"/>
<path d="M10.541 0C4.77381 0 0 4.6969 0 10.4704V10.4861C0.515731 10.0953 1.15057 9.85449 1.8457 9.85449H1.84689C2.35081 9.18467 3.11448 8.76652 3.9441 8.66567C4.7348 5.80409 7.43429 3.69543 10.541 3.69543C13.6477 3.69543 16.2652 5.80409 17.0559 8.66567C17.8856 8.76652 18.6492 9.18467 19.1531 9.85449H19.1543C19.8494 9.85449 20.4843 10.0953 21 10.4861V10.4704C21 4.6969 16.3082 0 10.541 0Z" fill="white"/>
<path d="M16.6934 9.85449C15.6756 9.85449 14.8477 10.6833 14.8477 11.7022V17.8613C14.8477 18.8801 15.6756 19.709 16.6934 19.709C17.6812 19.709 18.5391 18.8477 18.5391 17.8613V11.7022C18.5391 10.6628 17.6528 9.85449 16.6934 9.85449Z" fill="white"/>
<path d="M0 12.2771V15.9725C0 16.7741 0.5161 17.4501 1.23047 17.705C1.23047 17.5879 1.23047 10.7399 1.23047 10.5446C0.5161 10.7995 0 11.4754 0 12.2771Z" fill="white"/>
<path d="M19.7695 10.5446C19.7695 11.4228 19.7695 17.4768 19.7695 17.705C20.4839 17.4501 21 16.7742 21 15.9725V12.2771C21 11.4754 20.4839 10.7995 19.7695 10.5446Z" fill="white"/>
</svg>
