<svg width="17" height="17" viewBox="0 0 17 17" fill="none" xmlns="http://www.w3.org/2000/svg">
<path d="M8.5 0C3.81323 0 0 3.8129 0 8.5C0 13.1871 3.81323 17 8.5 17C13.1868 17 17 13.1871 17 8.5C17 3.8129 13.1868 0 8.5 0ZM8.5 16.3462C4.17383 16.3462 0.653846 12.8262 0.653846 8.5C0.653846 4.17383 4.17383 0.653846 8.5 0.653846C12.8262 0.653846 16.3462 4.17383 16.3462 8.5C16.3462 12.8262 12.8262 16.3462 8.5 16.3462Z" fill="black"/>
<path d="M12.5869 8.17308H8.8273V4.57692C8.8273 4.39613 8.68084 4.25 8.50038 4.25C8.31991 4.25 8.17345 4.39613 8.17345 4.57692V8.17308H4.41384C4.23338 8.17308 4.08691 8.31921 4.08691 8.5C4.08691 8.68079 4.23338 8.82692 4.41384 8.82692H8.17345V12.75C8.17345 12.9308 8.31991 13.0769 8.50038 13.0769C8.68084 13.0769 8.8273 12.9308 8.8273 12.75V8.82692H12.5869C12.7674 8.82692 12.9138 8.68079 12.9138 8.5C12.9138 8.31921 12.7674 8.17308 12.5869 8.17308Z" fill="black"/>
</svg>
