<svg width="14" height="15" viewBox="0 0 14 15" fill="none" xmlns="http://www.w3.org/2000/svg">
<path d="M13.9637 5.85806C13.8738 5.57612 13.6271 5.37587 13.3352 5.3492L9.37037 4.98429L7.80257 1.26478C7.68697 0.992187 7.4237 0.815735 7.13118 0.815735C6.83867 0.815735 6.5754 0.992187 6.45979 1.26542L4.89199 4.98429L0.926538 5.3492C0.635176 5.3765 0.38909 5.57612 0.298642 5.85806C0.208194 6.14 0.291725 6.44924 0.512133 6.64418L3.50907 9.30827L2.62534 13.2541C2.56068 13.5442 2.67177 13.8441 2.90927 14.0181C3.03692 14.1116 3.18627 14.1592 3.33688 14.1592C3.46673 14.1592 3.59554 14.1237 3.71114 14.0536L7.13118 11.9817L10.55 14.0536C10.8001 14.2061 11.1155 14.1922 11.3525 14.0181C11.5901 13.8435 11.7011 13.5435 11.6364 13.2541L10.7527 9.30827L13.7496 6.64471C13.97 6.44924 14.0542 6.14053 13.9637 5.85806Z" fill="#D5D5D5"/>
</svg>
